<svg width="512" height="512" viewBox="0 0 512 512" fill="none" xmlns="http://www.w3.org/2000/svg">
<g clip-path="url(#clip0_4_3)">
<rect width="512" height="512" fill="#2C5EA8"/>
<path d="M217.554 289.295H295.251L257.227 170.112H256.409L217.554 289.295ZM213.056 140.104C220.02 121.203 235.966 106 256.818 106C278.487 106 293.628 120.381 300.566 140.104L380.729 363.665C383.169 370.24 384 376.005 384 378.882C384 394.906 370.903 406 355.789 406C338.603 406 330.017 396.96 325.928 384.634L313.663 345.997H199.973L187.707 384.223C183.618 396.961 175.019 406 158.256 406C141.901 406 128 393.673 128 377.238C128 370.664 130.044 365.733 130.862 363.665L213.056 140.104Z" fill="white"/>
</g>
<defs>
<clipPath id="clip0_4_3">
<rect width="512" height="512" fill="white"/>
</clipPath>
</defs>
</svg>
