<svg width="512" height="512" viewBox="0 0 512 512" fill="none" xmlns="http://www.w3.org/2000/svg">
<g clip-path="url(#clip0_3_66)">
<rect width="512" height="512" rx="256" fill="#2C5EA8"/>
<path d="M220.858 286.409H291.878L257.121 177.555H256.374L220.858 286.409ZM216.747 150.148C223.112 132.885 237.687 119 256.747 119C276.555 119 290.395 132.135 296.736 150.148L370.01 354.334C372.24 360.339 373 365.605 373 368.232C373 382.868 361.029 393 347.213 393C331.504 393 323.656 384.744 319.919 373.486L308.707 338.198H204.788L193.576 373.11C189.839 384.744 181.978 393 166.656 393C151.707 393 139 381.742 139 366.731C139 360.726 140.869 356.223 141.616 354.334L216.747 150.148Z" fill="white"/>
</g>
<defs>
<clipPath id="clip0_3_66">
<rect width="512" height="512" fill="white"/>
</clipPath>
</defs>
</svg>
