<svg width="512" height="512" viewBox="0 0 512 512" fill="none" xmlns="http://www.w3.org/2000/svg">
<g filter="url(#filter0_d_3_10)">
<path fill-rule="evenodd" clip-rule="evenodd" d="M461.993 357.464C461.993 359.721 461.922 364.617 461.788 368.392C461.457 377.64 460.723 389.556 459.616 395.009C458.13 402.741 455.62 410.24 452.152 417.309C444.512 432.37 432.27 444.602 417.203 452.229C410.09 455.703 402.546 458.21 394.769 459.686C389.386 460.78 377.548 461.492 368.356 461.802C364.575 461.937 359.679 462 357.436 462H154.557C152.3 462 147.411 461.929 143.63 461.795C134.381 461.464 122.466 460.73 117.012 459.623C109.28 458.137 101.781 455.627 94.7125 452.159C79.6554 444.517 67.4258 432.275 59.7989 417.21C56.3232 410.098 53.813 402.553 52.3351 394.776C51.2487 389.393 50.5291 377.556 50.2187 368.363C50.0705 364.575 50 359.7 50 357.436L50.0353 154.557C50.0353 152.3 50.0988 147.411 50.2399 143.63C50.5714 134.381 51.2981 122.466 52.4127 117.012C53.8985 109.28 56.4086 101.781 59.8765 94.7125C67.517 79.6542 79.7594 67.4241 94.8254 59.7989C101.935 56.3219 109.477 53.8117 117.252 52.3351C122.663 51.2487 134.48 50.5291 143.665 50.2046C147.453 50.0705 152.342 50 154.593 50L357.464 50.0353C359.721 50.0353 364.617 50.0988 368.392 50.2399C377.64 50.5714 389.556 51.3051 395.009 52.4127C402.741 53.8985 410.24 56.4086 417.309 59.8765C432.372 67.5131 444.604 79.7598 452.222 94.8325C455.702 101.94 458.213 109.483 459.686 117.259C460.772 122.642 461.492 134.487 461.802 143.672C461.937 147.46 462 152.349 462 154.6L461.993 357.464Z" fill="#2C5EA8"/>
</g>
<path d="M217.554 289.295H295.251L257.227 170.112H256.409L217.554 289.295ZM213.056 140.104C220.02 121.203 235.966 106 256.818 106C278.487 106 293.628 120.381 300.566 140.104L380.729 363.665C383.169 370.24 384 376.005 384 378.882C384 394.906 370.903 406 355.789 406C338.603 406 330.017 396.96 325.928 384.634L313.663 345.997H199.973L187.707 384.223C183.618 396.961 175.019 406 158.256 406C141.901 406 128 393.673 128 377.238C128 370.664 130.044 365.733 130.862 363.665L213.056 140.104Z" fill="white"/>
<defs>
<filter id="filter0_d_3_10" x="30" y="45" width="452" height="452" filterUnits="userSpaceOnUse" color-interpolation-filters="sRGB">
<feFlood flood-opacity="0" result="BackgroundImageFix"/>
<feColorMatrix in="SourceAlpha" type="matrix" values="0 0 0 0 0 0 0 0 0 0 0 0 0 0 0 0 0 0 127 0" result="hardAlpha"/>
<feOffset dy="15"/>
<feGaussianBlur stdDeviation="10"/>
<feComposite in2="hardAlpha" operator="out"/>
<feColorMatrix type="matrix" values="0 0 0 0 0 0 0 0 0 0 0 0 0 0 0 0 0 0 0.25 0"/>
<feBlend mode="normal" in2="BackgroundImageFix" result="effect1_dropShadow_3_10"/>
<feBlend mode="normal" in="SourceGraphic" in2="effect1_dropShadow_3_10" result="shape"/>
</filter>
</defs>
</svg>
